# xmcd
#
# Track frame offsets: 
#        150
#        17639
#        33088
#        49601
#        68008
#        87346
#        107674
#        129552
#        148134
#
# Disc length: 2234 seconds
#
# Revision: 1
# Processed by: cddbd v1.5.2PL0 Copyright (c) Steve Scherf et al.
# Submitted via: ExactAudioCopy v0.95a5
#
DISCID=7108b809
DTITLE=Leslie Smith - k-Heartache
DYEAR=1982
DGENRE=R&B
TTITLE0=It's Something
TTITLE1=I'm On The Outside Looking In
TTITLE2=Before The Night Is Over (Duet with Merry Clayton)
TTITLE3=Don't Shut The Door (On My Love)
TTITLE4=Dream On
TTITLE5=Nothin' You Can Do About It
TTITLE6=Love's A Heartache
TTITLE7=Do You Still Remember Me
TTITLE8=If You're In Love
EXTD=
EXTT0=
EXTT1=
EXTT2=
EXTT3=
EXTT4=
EXTT5=
EXTT6=
EXTT7=
EXTT8=
PLAYORDER=
